<svg id="Layer_1" data-name="Layer 1" xmlns="http://www.w3.org/2000/svg" viewBox="0 0 633.59 38.88"><defs><style>.cls-1{fill:#730000;}.cls-2{opacity:0.89;}.cls-3{fill:#450000;}</style></defs><title>nmglogo</title><path d="M66.15,220.56V198.4a1.72,1.72,0,0,0-.85-1.64,8.64,8.64,0,0,0-2.86-.74c-.39,0-.58-.34-.58-.9a4.53,4.53,0,0,1,.1-.85l2.7.19c.92,0,1.79.08,2.6.08s1.59,0,2.44-.08l2.49-.19a4.69,4.69,0,0,1,.11.85c0,.56-.18.86-.53.9a6.06,6.06,0,0,0-2.47.74,1.77,1.77,0,0,0-.66,1.54v31.22a1.5,1.5,0,0,1-.37.08l-.43,0a1.36,1.36,0,0,1-.68-.18,2.88,2.88,0,0,1-.75-.77L44.9,200.31v25a1.55,1.55,0,0,0,.74,1.48,9.9,9.9,0,0,0,2.86.79c.35.08.53.36.53.85a4.69,4.69,0,0,1-.11.85q-1.32-.1-2.67-.18c-.9-.06-1.74-.08-2.52-.08s-1.54,0-2.49.08-1.82.11-2.6.18a4.53,4.53,0,0,1-.1-.85c0-.49.19-.77.58-.85a8.19,8.19,0,0,0,2.57-.79,1.62,1.62,0,0,0,.66-1.48V198a1.5,1.5,0,0,0-.61-1.29,6.14,6.14,0,0,0-2.52-.72c-.38-.07-.58-.37-.58-.9a2.28,2.28,0,0,1,0-.48,1.41,1.41,0,0,1,.06-.37c.7.07,1.38.13,2,.16s1.17.06,1.8.08l1.7,0a12.67,12.67,0,0,1,2,.1,1.33,1.33,0,0,1,.82.53Z" transform="translate(-38.54 -190.75)"/><path d="M97,227.69c.35,0,.54.34.57,1a5.45,5.45,0,0,1-3.16.86,4.89,4.89,0,0,1-1.84-.31,4,4,0,0,1-1.32-.84,3.77,3.77,0,0,1-.82-1.2,4.89,4.89,0,0,1-.39-1.39,6.69,6.69,0,0,1-2.86,3,8.68,8.68,0,0,1-3.81.79,12.38,12.38,0,0,1-2-.17,6.16,6.16,0,0,1-2-.69,4.44,4.44,0,0,1-1.59-1.49,4.66,4.66,0,0,1-.62-2.54,5.15,5.15,0,0,1,.84-3,6.85,6.85,0,0,1,2.16-2A12.91,12.91,0,0,1,83,218.38c1-.32,2-.59,3-.82.54-.09,1-.2,1.51-.31a10.69,10.69,0,0,0,1.22-.36,1.25,1.25,0,0,0,.84-.53,3.11,3.11,0,0,0,.17-1.29,7.26,7.26,0,0,0-.86-3.72,3.26,3.26,0,0,0-3.07-1.47,4.74,4.74,0,0,0-1.4.19,2.38,2.38,0,0,0-1,.6,4,4,0,0,0-.67,1.08q-.28.67-.57,1.59a1.19,1.19,0,0,1-.65.77,11.81,11.81,0,0,1-1.71.57,5.21,5.21,0,0,1-.72.19,3,3,0,0,1-.72.1c-.32,0-.48-.34-.48-1a3.47,3.47,0,0,1,.82-2.11A8.1,8.1,0,0,1,80.81,210a12.1,12.1,0,0,1,2.76-1.32,8.7,8.7,0,0,1,2.83-.51,14.7,14.7,0,0,1,3,.29,5.56,5.56,0,0,1,2.32,1.06,4.78,4.78,0,0,1,1.48,2.06,9.35,9.35,0,0,1,.51,3.36v8.26a17,17,0,0,0,.12,2.42,3.67,3.67,0,0,0,.36,1.18,2,2,0,0,0,.75.89,1.8,1.8,0,0,0,.84.21,2.11,2.11,0,0,0,.74-.09A1.06,1.06,0,0,1,97,227.69Zm-7.3-9.36-1.54.24c-.84.16-1.65.35-2.44.58a7.44,7.44,0,0,0-2.1.93,4.81,4.81,0,0,0-1.47,1.51,4.19,4.19,0,0,0-.56,2.26,3.79,3.79,0,0,0,.94,2.78,3.15,3.15,0,0,0,2.34,1,4.29,4.29,0,0,0,1.81-.4A4.64,4.64,0,0,0,88.24,226a6.1,6.1,0,0,0,1.06-1.75,5.87,5.87,0,0,0,.41-2.21Z" transform="translate(-38.54 -190.75)"/><path d="M113,208.2a2.86,2.86,0,0,1,2.07.67,2.11,2.11,0,0,1,.67,1.49,1.32,1.32,0,0,1-.1.53,1.19,1.19,0,0,1-.45.5,9.38,9.38,0,0,1-1,.63c-.43.24-1,.53-1.8.89a4.33,4.33,0,0,0-1-.92,2.45,2.45,0,0,0-1.32-.38,2.55,2.55,0,0,0-1.49.46,3.93,3.93,0,0,0-1.15,1.24,6.88,6.88,0,0,0-.75,1.83,8.87,8.87,0,0,0-.26,2.13v8.26a1.66,1.66,0,0,0,1.1,1.56,11.69,11.69,0,0,0,3.17.79.54.54,0,0,1,.48.58,3.76,3.76,0,0,1-.1.77c-.35,0-.79-.06-1.32-.08s-1.08,0-1.65-.07l-1.78-.07c-.62,0-1.18,0-1.7,0-.87,0-1.78,0-2.71.07s-1.81.1-2.64.17a3.76,3.76,0,0,1-.1-.77.53.53,0,0,1,.43-.58,8.31,8.31,0,0,0,2-.57,1.22,1.22,0,0,0,.84-1.11V214a11,11,0,0,0-.12-1.68,2.68,2.68,0,0,0-.41-1.08,1.71,1.71,0,0,0-.84-.6,6.9,6.9,0,0,0-1.42-.29c-.41-.06-.62-.27-.62-.62a3,3,0,0,1,.09-.67c.42,0,1,0,1.76-.08s1.36-.1,1.85-.16c.71-.13,1.33-.27,1.87-.41a4.82,4.82,0,0,1,1.19-.22c.45,0,.68.24.68.72v3.22a20.26,20.26,0,0,1,3.09-2.81A5.9,5.9,0,0,1,113,208.2Z" transform="translate(-38.54 -190.75)"/><path d="M130.75,208.2a2.86,2.86,0,0,1,2.07.67,2.11,2.11,0,0,1,.67,1.49,1.32,1.32,0,0,1-.1.53,1.19,1.19,0,0,1-.45.5,9.38,9.38,0,0,1-1,.63c-.43.24-1,.53-1.8.89a4.33,4.33,0,0,0-1-.92,2.45,2.45,0,0,0-1.32-.38,2.55,2.55,0,0,0-1.49.46,3.93,3.93,0,0,0-1.15,1.24,6.88,6.88,0,0,0-.75,1.83,8.87,8.87,0,0,0-.26,2.13v8.26a1.66,1.66,0,0,0,1.1,1.56,11.69,11.69,0,0,0,3.17.79.54.54,0,0,1,.48.58,3.76,3.76,0,0,1-.1.77c-.35,0-.79-.06-1.32-.08s-1.08,0-1.65-.07L124,229c-.62,0-1.18,0-1.7,0-.87,0-1.78,0-2.71.07s-1.81.1-2.64.17a3.76,3.76,0,0,1-.1-.77.53.53,0,0,1,.43-.58,8.31,8.31,0,0,0,2-.57,1.22,1.22,0,0,0,.84-1.11V214a9.83,9.83,0,0,0-.12-1.68,2.68,2.68,0,0,0-.41-1.08,1.66,1.66,0,0,0-.84-.6,6.9,6.9,0,0,0-1.42-.29c-.41-.06-.62-.27-.62-.62a3,3,0,0,1,.09-.67c.42,0,1,0,1.76-.08s1.36-.1,1.85-.16c.71-.13,1.33-.27,1.87-.41a4.82,4.82,0,0,1,1.19-.22c.45,0,.68.24.68.72v3.22a20.26,20.26,0,0,1,3.09-2.81A5.9,5.9,0,0,1,130.75,208.2Z" transform="translate(-38.54 -190.75)"/><path d="M153.84,227.69c.35,0,.54.34.58,1a5.51,5.51,0,0,1-3.17.86,4.89,4.89,0,0,1-1.84-.31,3.89,3.89,0,0,1-1.31-.84,3.64,3.64,0,0,1-.83-1.2,4.89,4.89,0,0,1-.39-1.39,6.69,6.69,0,0,1-2.86,3,8.68,8.68,0,0,1-3.81.79,12.38,12.38,0,0,1-2-.17,6.16,6.16,0,0,1-2-.69,4.44,4.44,0,0,1-1.59-1.49,4.66,4.66,0,0,1-.62-2.54,5.15,5.15,0,0,1,.84-3,6.85,6.85,0,0,1,2.16-2,12.91,12.91,0,0,1,2.88-1.27c1-.32,2-.59,3-.82.54-.09,1-.2,1.51-.31a10.9,10.9,0,0,0,1.23-.36,1.3,1.3,0,0,0,.84-.53,3.35,3.35,0,0,0,.16-1.29,7.16,7.16,0,0,0-.86-3.72,3.26,3.26,0,0,0-3.07-1.47,4.62,4.62,0,0,0-1.39.19,2.25,2.25,0,0,0-1,.6,4,4,0,0,0-.68,1.08q-.29.67-.57,1.59a1.16,1.16,0,0,1-.65.77,11.58,11.58,0,0,1-1.7.57,6.12,6.12,0,0,1-.72.19,3.14,3.14,0,0,1-.72.1c-.32,0-.48-.34-.48-1a3.46,3.46,0,0,1,.81-2.11,8.26,8.26,0,0,1,2.09-1.87,12.1,12.1,0,0,1,2.76-1.32,8.74,8.74,0,0,1,2.83-.51,14.7,14.7,0,0,1,3,.29,5.5,5.5,0,0,1,2.32,1.06,4.8,4.8,0,0,1,1.49,2.06,9.35,9.35,0,0,1,.51,3.36v8.26a17,17,0,0,0,.12,2.42,3.67,3.67,0,0,0,.36,1.18,2,2,0,0,0,.74.89,1.8,1.8,0,0,0,.84.21,2.11,2.11,0,0,0,.74-.09A1.06,1.06,0,0,1,153.84,227.69Zm-7.3-9.36-1.54.24c-.84.16-1.65.35-2.44.58a7.44,7.44,0,0,0-2.1.93,4.81,4.81,0,0,0-1.47,1.51,4.28,4.28,0,0,0-.56,2.26,3.83,3.83,0,0,0,.94,2.78,3.16,3.16,0,0,0,2.35,1,4.36,4.36,0,0,0,1.81-.4,4.61,4.61,0,0,0,1.54-1.16,5.89,5.89,0,0,0,1.06-1.75,5.68,5.68,0,0,0,.41-2.21Z" transform="translate(-38.54 -190.75)"/><path d="M167.09,226.15a1,1,0,0,1,.41-.28.77.77,0,0,1,.26-.05c.29,0,.54.21.77.62a11.76,11.76,0,0,1-2.69,2.26,5.91,5.91,0,0,1-3.07.86,7.78,7.78,0,0,1-1.83-.21,3.22,3.22,0,0,1-1.48-.84,4.29,4.29,0,0,1-1-1.71,9.05,9.05,0,0,1-.36-2.81V210.75h-2.88v-.53a1.64,1.64,0,0,1,.12-.63.49.49,0,0,1,.51-.28,3.22,3.22,0,0,0,2.11-.68,5.17,5.17,0,0,0,1.34-1.72c.39-.77.72-1.49,1-2.16s.61-1,1-1h.86v5h5.62a3.88,3.88,0,0,1-.22,1.51.78.78,0,0,1-.79.51h-4.61v11.9a16.24,16.24,0,0,0,.15,2.47,4.11,4.11,0,0,0,.43,1.44,1.38,1.38,0,0,0,.67.65,2.41,2.41,0,0,0,.87.14,3.26,3.26,0,0,0,1.51-.36A9.19,9.19,0,0,0,167.09,226.15Z" transform="translate(-38.54 -190.75)"/><path d="M175.27,229c-.55,0-1.11,0-1.67,0l-1.57.07-1.25.1-.67,0a2,2,0,0,0-.05-.34,2.93,2.93,0,0,1,0-.43.53.53,0,0,1,.43-.58,10,10,0,0,0,2-.57,1.15,1.15,0,0,0,.77-1.11v-13a3.38,3.38,0,0,0-.5-2.07,3.23,3.23,0,0,0-2.19-.77.63.63,0,0,1-.62-.67,2.38,2.38,0,0,1,.1-.62c.41,0,1,0,1.75-.07s1.37-.11,1.85-.17c.74-.13,1.41-.27,2-.41a6.34,6.34,0,0,1,1.26-.22c.46,0,.68.24.68.72a11.55,11.55,0,0,1-.14,1.61,16.33,16.33,0,0,0-.15,2.47V226.2a1.15,1.15,0,0,0,.75,1.11,9.31,9.31,0,0,0,2.09.57.53.53,0,0,1,.38.58c0,.09,0,.24,0,.43a.7.7,0,0,1-.08.34l-.64,0-1.23-.1-1.57-.07C176.38,229,175.82,229,175.27,229Zm-2.81-28.85a2.8,2.8,0,0,1,.8-2,2.61,2.61,0,0,1,2-.84,2.49,2.49,0,0,1,1.92.84,2.86,2.86,0,0,1,.77,2,2.72,2.72,0,0,1-.77,2,2.57,2.57,0,0,1-1.92.77,2.7,2.7,0,0,1-2-.77A2.67,2.67,0,0,1,172.46,200.14Z" transform="translate(-38.54 -190.75)"/><path d="M192.19,223.75q2.31-5.7,3.43-8.78a16.39,16.39,0,0,0,1.13-3.84,1.06,1.06,0,0,0-.31-.79,3.05,3.05,0,0,0-1.51-.51c-.42,0-.63-.24-.63-.62a1.58,1.58,0,0,1,0-.29,3.4,3.4,0,0,1,.1-.33c1.25.09,2.57.14,4,.14l1.95,0c.56,0,1.09-.06,1.6-.12a1.77,1.77,0,0,1,.15.62.48.48,0,0,1-.17.41l-.46.31q-.85.52-1.68,1a2.63,2.63,0,0,0-1.2,1.39l-7,17.19a2.43,2.43,0,0,1-.72.09.75.75,0,0,1-.74-.45c-.14-.31-.38-.83-.7-1.56l-6.57-15.27a8.88,8.88,0,0,0-.53-1.13,2.48,2.48,0,0,0-.53-.64,1.87,1.87,0,0,0-.72-.36,8.15,8.15,0,0,0-1.1-.22.63.63,0,0,1-.63-.72,1.77,1.77,0,0,1,.15-.62q1.2.09,2.25.12l2.45,0,2.71,0q1.19,0,2.43-.12a1.44,1.44,0,0,1,.14.62c0,.38-.21.59-.62.62a5.2,5.2,0,0,0-1.51.41.68.68,0,0,0-.36.6,5.82,5.82,0,0,0,.28,1.18c.2.62.5,1.43.92,2.42Z" transform="translate(-38.54 -190.75)"/><path d="M219.41,224.52a1,1,0,0,1,.72-.33c.32,0,.62.27.91.81a14,14,0,0,1-1.44,1.68,9.24,9.24,0,0,1-1.94,1.47,11,11,0,0,1-2.57,1,13.21,13.21,0,0,1-3.31.38,10.8,10.8,0,0,1-3.65-.62,8.48,8.48,0,0,1-3-1.92A9.64,9.64,0,0,1,203,223.8a11.73,11.73,0,0,1-.79-4.51,10.83,10.83,0,0,1,.93-4.51,11.61,11.61,0,0,1,2.43-3.53,11.14,11.14,0,0,1,3.28-2.28,8.48,8.48,0,0,1,3.48-.82q4.47,0,6.51,2.6a10.59,10.59,0,0,1,2,6.76.25.25,0,0,1-.29.29l-13.87.63a10.9,10.9,0,0,0,.52,3.45,8.31,8.31,0,0,0,1.49,2.74,6.61,6.61,0,0,0,2.32,1.8,7.1,7.1,0,0,0,3.08.65,6.38,6.38,0,0,0,2.94-.72A7.52,7.52,0,0,0,219.41,224.52Zm-7.76-14.64a4.33,4.33,0,0,0-3.72,1.87,8.26,8.26,0,0,0-1.34,4.9l9-.43q.72,0,.72-.63a7.17,7.17,0,0,0-.29-1.92,6.33,6.33,0,0,0-.86-1.84,4.88,4.88,0,0,0-1.46-1.4A3.91,3.91,0,0,0,211.65,209.88Z" transform="translate(-38.54 -190.75)"/><path d="M236.93,214.06a.75.75,0,0,1-.55-.17.69.69,0,0,1-.22-.36,4,4,0,0,0-1.56-2.81,5.27,5.27,0,0,0-3-.84,4.11,4.11,0,0,0-2.47.79,2.57,2.57,0,0,0-1.08,2.19,2.66,2.66,0,0,0,1,2.09,10.83,10.83,0,0,0,3.58,1.65,23.85,23.85,0,0,1,2.57,1,8,8,0,0,1,2,1.27,5.31,5.31,0,0,1,1.32,1.83,6.27,6.27,0,0,1,.48,2.57,6.55,6.55,0,0,1-.45,2.4,5.55,5.55,0,0,1-1.39,2,7,7,0,0,1-2.36,1.39,9.48,9.48,0,0,1-3.38.53,18.45,18.45,0,0,1-3.43-.36A11.26,11.26,0,0,1,224.5,228c-.07-.83-.12-1.71-.17-2.62s-.07-1.83-.07-2.76h.48a1.83,1.83,0,0,1,.81.17.71.71,0,0,1,.39.55,4.69,4.69,0,0,0,1.56,3.24,5.49,5.49,0,0,0,3.81,1.23,4.62,4.62,0,0,0,3-.89,3,3,0,0,0,1-2.43,2.81,2.81,0,0,0-1.15-2.42,11.6,11.6,0,0,0-3.41-1.51,12.14,12.14,0,0,1-4.44-2.26,5.12,5.12,0,0,1-1.61-4.08,5.85,5.85,0,0,1,.48-2.35,5.66,5.66,0,0,1,1.35-1.92,6.38,6.38,0,0,1,2.11-1.3,7.69,7.69,0,0,1,2.78-.48,12.64,12.64,0,0,1,3.63.51,11.35,11.35,0,0,1,2.66,1.08c0,.25.06.57.1.93s.05.76.07,1.16,0,.8,0,1.2,0,.76,0,1.08Z" transform="translate(-38.54 -190.75)"/><path d="M251.76,218.86a10.55,10.55,0,0,1,.84-4.18,10.61,10.61,0,0,1,5.66-5.69,10.5,10.5,0,0,1,4.2-.84,11.42,11.42,0,0,1,4.32.8,10.13,10.13,0,0,1,3.39,2.18,9.87,9.87,0,0,1,2.21,3.38,11.85,11.85,0,0,1,.79,4.35,10.5,10.5,0,0,1-.84,4.2,10.66,10.66,0,0,1-5.67,5.66,10.43,10.43,0,0,1-4.2.84,11.41,11.41,0,0,1-4.32-.79,10.3,10.3,0,0,1-3.38-2.18,9.73,9.73,0,0,1-2.21-3.36A11.6,11.6,0,0,1,251.76,218.86Zm4.51-1.59a18.56,18.56,0,0,0,.38,3.65,12.92,12.92,0,0,0,1.18,3.39,7.69,7.69,0,0,0,2,2.49,4.71,4.71,0,0,0,3,1,5.1,5.1,0,0,0,4.25-1.92,7.75,7.75,0,0,0,1.51-5,20.51,20.51,0,0,0-.36-3.72,13.56,13.56,0,0,0-1.15-3.55,8,8,0,0,0-2.06-2.66,4.74,4.74,0,0,0-3.15-1.06,5.22,5.22,0,0,0-4.1,1.75Q256.27,213.44,256.27,217.27Z" transform="translate(-38.54 -190.75)"/><path d="M279.07,210.75h-2.88v-.87a.59.59,0,0,1,.46-.65,8.52,8.52,0,0,1,1-.19,2.77,2.77,0,0,0,1-.33,1.2,1.2,0,0,0,.46-1.13v-2.21a12.35,12.35,0,0,1,.74-4.51,9.75,9.75,0,0,1,1.9-3.1,7.42,7.42,0,0,1,2.57-1.8,7.33,7.33,0,0,1,2.76-.57,11.85,11.85,0,0,1,2.85.31,8.48,8.48,0,0,1,2.19.84,4.68,4.68,0,0,1,1.41,1.17A2.16,2.16,0,0,1,294,199c0,.2-.14.38-.41.56a5.51,5.51,0,0,1-.91.45,5.77,5.77,0,0,1-1,.29,4.66,4.66,0,0,1-.67.1,1.11,1.11,0,0,1-1-.58,8,8,0,0,0-1.27-1.87,2.84,2.84,0,0,0-2.23-.82,2.78,2.78,0,0,0-2.57,1.42,8,8,0,0,0-.84,4v6.1h5.67a5.73,5.73,0,0,1-.15,1.49.73.73,0,0,1-.81.53H283.1v14.68a1.69,1.69,0,0,0,1.11,1.71,13.83,13.83,0,0,0,3.6.69.58.58,0,0,1,.52.63,2.93,2.93,0,0,1,0,.43,2,2,0,0,0-.05.34l-.84,0-1.66-.1-2.06-.07c-.74,0-1.43,0-2.07,0s-1.09,0-1.65,0l-1.61.07-1.32.1-.7,0a2.83,2.83,0,0,0,0-.34,2.15,2.15,0,0,1-.05-.43.53.53,0,0,1,.43-.58,6.07,6.07,0,0,0,1.73-.55,1.19,1.19,0,0,0,.67-1.13Z" transform="translate(-38.54 -190.75)"/><path d="M333.49,195.54a4.49,4.49,0,0,1,.24-.42.82.82,0,0,1,.45-.32,5.36,5.36,0,0,1,.85-.18,9.65,9.65,0,0,1,1.49-.08l1.11,0,1.48,0,1.62-.08,1.51-.11a4.69,4.69,0,0,1,.11.85c0,.56-.18.86-.53.9a6.49,6.49,0,0,0-2.55.72,1.39,1.39,0,0,0-.63,1.19s0,.5.07,1.4.14,2.41.24,4.51.24,4.9.4,8.4.35,7.84.56,13a1.83,1.83,0,0,0,.69,1.48,6.49,6.49,0,0,0,2.59.79.58.58,0,0,1,.4.3,1.09,1.09,0,0,1,.13.55,4.53,4.53,0,0,1-.1.85l-3.37-.18c-1-.06-1.93-.08-2.78-.08-.35,0-.8,0-1.33,0l-1.66.06c-.59,0-1.16,0-1.73.08l-1.48.1a4.69,4.69,0,0,1-.11-.85c0-.56.18-.85.53-.85a11.51,11.51,0,0,0,2.89-.84,1.51,1.51,0,0,0,.77-1.43c0-.11,0-.76-.08-2s-.12-2.66-.21-4.39-.18-3.61-.27-5.62-.17-3.92-.26-5.7-.17-3.32-.24-4.61-.11-2.08-.11-2.36l-11.6,28a3.57,3.57,0,0,1-.4.71.61.61,0,0,1-.5.24,1.49,1.49,0,0,1-.48-.05l-13-29.79c0,.36-.08,1.21-.13,2.57s-.12,3-.21,4.85-.19,3.85-.29,5.94-.21,4-.29,5.78-.16,3.25-.22,4.45-.08,1.84-.08,1.91c0,1.09,1.21,1.85,3.61,2.27.35,0,.53.32.53.85a4.69,4.69,0,0,1-.11.85l-2.81-.18c-.92-.06-1.73-.08-2.43-.08s-1.33,0-2.28.08-1.86.11-2.71.18a4.53,4.53,0,0,1-.1-.85c0-.49.17-.77.53-.85a7.29,7.29,0,0,0,2.3-.76,1.87,1.87,0,0,0,1-1.51c0-.32,0-1.21.11-2.68s.15-3.21.24-5.22.18-4.15.29-6.41.2-4.36.29-6.28.16-3.52.21-4.77.08-1.9.08-1.94a1.34,1.34,0,0,0-.66-1.24,7.93,7.93,0,0,0-2.52-.72c-.35,0-.53-.34-.53-.9a4.69,4.69,0,0,1,.11-.85l1.56.11,1.75.08,1.67,0,1.27,0a9.73,9.73,0,0,1,1.49.08,5,5,0,0,1,.84.18.75.75,0,0,1,.45.32,4.49,4.49,0,0,1,.24.42L322.74,222Z" transform="translate(-38.54 -190.75)"/><path d="M348.63,218.86a10.55,10.55,0,0,1,.84-4.18,10.58,10.58,0,0,1,5.67-5.69,10.43,10.43,0,0,1,4.2-.84,11.49,11.49,0,0,1,4.32.8,10,10,0,0,1,3.38,2.18,9.87,9.87,0,0,1,2.21,3.38,11.64,11.64,0,0,1,.79,4.35,10.5,10.5,0,0,1-.84,4.2,10.69,10.69,0,0,1-5.66,5.66,10.5,10.5,0,0,1-4.2.84,11.41,11.41,0,0,1-4.32-.79,10.24,10.24,0,0,1-3.39-2.18,9.88,9.88,0,0,1-2.21-3.36A11.8,11.8,0,0,1,348.63,218.86Zm4.51-1.59a17.85,17.85,0,0,0,.39,3.65,12.91,12.91,0,0,0,1.17,3.39,7.69,7.69,0,0,0,2,2.49,4.74,4.74,0,0,0,3,1,5.11,5.11,0,0,0,4.25-1.92,7.81,7.81,0,0,0,1.51-5,20.51,20.51,0,0,0-.36-3.72,13.94,13.94,0,0,0-1.15-3.55A8,8,0,0,0,362,211a4.72,4.72,0,0,0-3.14-1.06,5.23,5.23,0,0,0-4.11,1.75Q353.14,213.44,353.14,217.27Z" transform="translate(-38.54 -190.75)"/><path d="M393.42,224.71a4.64,4.64,0,0,0,.09,1,1.4,1.4,0,0,0,.39.69,1.84,1.84,0,0,0,.79.46,6.52,6.52,0,0,0,1.32.26c.41.07.62.28.62.63a3,3,0,0,1-.09.67c-.42,0-1,0-1.66.07s-1.27.11-1.75.17c-.72.13-1.34.26-1.87.41a5.35,5.35,0,0,1-1.2.21c-.45,0-.68-.24-.68-.72v-3.64c-.44.6-.89,1.19-1.34,1.75a8.49,8.49,0,0,1-1.56,1.49,7.51,7.51,0,0,1-2,1,9.07,9.07,0,0,1-2.78.38,7.45,7.45,0,0,1-3.12-.67,7.56,7.56,0,0,1-2.64-2,10,10,0,0,1-1.85-3.24,12.64,12.64,0,0,1-.7-4.37,10.77,10.77,0,0,1,1-4.73,11.72,11.72,0,0,1,2.5-3.5,10.56,10.56,0,0,1,3.24-2.16,8.23,8.23,0,0,1,3.24-.75,13.27,13.27,0,0,1,3.24.36,20.93,20.93,0,0,1,2.8.94v-9.07a3.18,3.18,0,0,0-.5-2,3.29,3.29,0,0,0-2.18-.75.63.63,0,0,1-.63-.67,2.59,2.59,0,0,1,.1-.67c.41,0,1,0,1.75-.07s1.37-.11,1.85-.17a15,15,0,0,0,2-.38,5.43,5.43,0,0,1,1.26-.24c.46,0,.68.24.68.72a13.42,13.42,0,0,1-.14,1.87,19,19,0,0,0-.14,2.59Zm-4-12.14a9.68,9.68,0,0,0-2.64-2,7.17,7.17,0,0,0-3.26-.72,4.61,4.61,0,0,0-4.2,2.31,11,11,0,0,0-1.42,5.9,14.55,14.55,0,0,0,.41,3.48,9.61,9.61,0,0,0,1.2,2.9,6.24,6.24,0,0,0,1.92,2,4.58,4.58,0,0,0,2.52.72,3.73,3.73,0,0,0,1.92-.57,7.6,7.6,0,0,0,1.75-1.47,7.8,7.8,0,0,0,1.3-2,5.42,5.42,0,0,0,.5-2.24Z" transform="translate(-38.54 -190.75)"/><path d="M416.89,224.52a1,1,0,0,1,.72-.33c.32,0,.62.27.91.81a14,14,0,0,1-1.44,1.68,9.31,9.31,0,0,1-1.95,1.47,10.78,10.78,0,0,1-2.56,1,13.24,13.24,0,0,1-3.32.38,10.75,10.75,0,0,1-3.64-.62,8.4,8.4,0,0,1-3.05-1.92,9.49,9.49,0,0,1-2.11-3.22,11.72,11.72,0,0,1-.8-4.51,10.84,10.84,0,0,1,.94-4.51,11.59,11.59,0,0,1,2.42-3.53A11.32,11.32,0,0,1,406.3,209a8.48,8.48,0,0,1,3.48-.82q4.47,0,6.51,2.6a10.59,10.59,0,0,1,2,6.76.25.25,0,0,1-.29.29l-13.87.63a10.9,10.9,0,0,0,.52,3.45,8.31,8.31,0,0,0,1.49,2.74,6.61,6.61,0,0,0,2.32,1.8,7.1,7.1,0,0,0,3.08.65,6.38,6.38,0,0,0,2.94-.72A7.75,7.75,0,0,0,416.89,224.52Zm-7.76-14.64a4.33,4.33,0,0,0-3.72,1.87,8.26,8.26,0,0,0-1.34,4.9l9-.43c.48,0,.71-.21.71-.63a7.13,7.13,0,0,0-.28-1.92,6.33,6.33,0,0,0-.86-1.84,4.88,4.88,0,0,0-1.46-1.4A3.91,3.91,0,0,0,409.13,209.88Z" transform="translate(-38.54 -190.75)"/><path d="M435.56,208.2a2.83,2.83,0,0,1,2.06.67,2.07,2.07,0,0,1,.67,1.49,1.51,1.51,0,0,1-.09.53,1.3,1.3,0,0,1-.46.5,8.47,8.47,0,0,1-1,.63c-.43.24-1,.53-1.8.89a4.14,4.14,0,0,0-1-.92,2.45,2.45,0,0,0-1.32-.38,2.57,2.57,0,0,0-1.49.46,4.05,4.05,0,0,0-1.15,1.24,6.55,6.55,0,0,0-.74,1.83,8.4,8.4,0,0,0-.27,2.13v8.26a1.65,1.65,0,0,0,1.11,1.56,11.59,11.59,0,0,0,3.17.79.54.54,0,0,1,.48.58,4.63,4.63,0,0,1-.1.77c-.35,0-.79-.06-1.32-.08s-1.08,0-1.66-.07l-1.78-.07c-.61,0-1.17,0-1.69,0-.88,0-1.78,0-2.71.07s-1.82.1-2.65.17a4.43,4.43,0,0,1-.09-.77.53.53,0,0,1,.43-.58,8.37,8.37,0,0,0,1.94-.57,1.22,1.22,0,0,0,.84-1.11V214a9.83,9.83,0,0,0-.12-1.68,2.54,2.54,0,0,0-.41-1.08,1.66,1.66,0,0,0-.84-.6,6.78,6.78,0,0,0-1.41-.29c-.42-.06-.63-.27-.63-.62a3,3,0,0,1,.1-.67c.42,0,1,0,1.75-.08s1.37-.1,1.85-.16c.72-.13,1.34-.27,1.87-.41a4.9,4.9,0,0,1,1.19-.22c.46,0,.68.24.68.72v3.22a20.79,20.79,0,0,1,3.1-2.81A5.9,5.9,0,0,1,435.56,208.2Z" transform="translate(-38.54 -190.75)"/><path d="M461,226.25a1.17,1.17,0,0,0,.86,1.08,9.6,9.6,0,0,0,1.92.55.53.53,0,0,1,.43.58,4.43,4.43,0,0,1-.09.77c-.83-.07-1.65-.12-2.45-.17S460,229,459.08,229s-1.72,0-2.57.07-1.69.1-2.52.17a4.63,4.63,0,0,1-.1-.77.53.53,0,0,1,.44-.58,8.45,8.45,0,0,0,1.82-.55,1.17,1.17,0,0,0,.82-1.08v-9.41a15.16,15.16,0,0,0-.15-2.21,5.07,5.07,0,0,0-.55-1.75,2.9,2.9,0,0,0-1.1-1.15,3.49,3.49,0,0,0-1.79-.41,7,7,0,0,0-2.34.41,6,6,0,0,0-2,1.2,5.88,5.88,0,0,0-1.41,1.94,6.32,6.32,0,0,0-.52,2.64v8.74a1.16,1.16,0,0,0,.84,1.08,9.21,9.21,0,0,0,1.8.55.53.53,0,0,1,.43.58,3.76,3.76,0,0,1-.1.77c-.83-.07-1.65-.12-2.45-.17S445.94,229,445,229s-1.83,0-2.66.07-1.65.1-2.45.17a3.76,3.76,0,0,1-.1-.77.53.53,0,0,1,.43-.58,9.23,9.23,0,0,0,1.92-.55,1.2,1.2,0,0,0,.87-1.13v-13a3.31,3.31,0,0,0-.51-2.07,3.18,3.18,0,0,0-2.18-.77.63.63,0,0,1-.63-.67,2.9,2.9,0,0,1,.1-.62c.42,0,1,0,1.75-.07s1.37-.11,1.86-.17c.74-.13,1.4-.27,2-.41a6.52,6.52,0,0,1,1.27-.22c.45,0,.68.24.68.72a10.34,10.34,0,0,1-.15,1.61,18,18,0,0,0-.14,2.47A21.27,21.27,0,0,1,451,209.4a7.38,7.38,0,0,1,4.14-1.25,5.43,5.43,0,0,1,4.38,1.71,7,7,0,0,1,1.46,4.73Z" transform="translate(-38.54 -190.75)"/><path d="M536.06,224.52a1,1,0,0,1,.71-.33c.32,0,.63.27.91.81a12.35,12.35,0,0,1-1.44,1.68,9.24,9.24,0,0,1-1.94,1.47,10.86,10.86,0,0,1-2.57,1,13.16,13.16,0,0,1-3.31.38,10.8,10.8,0,0,1-3.65-.62,8.48,8.48,0,0,1-3-1.92,9.64,9.64,0,0,1-2.11-3.22,11.73,11.73,0,0,1-.79-4.51,10.83,10.83,0,0,1,.93-4.51,11.79,11.79,0,0,1,2.43-3.53,11.19,11.19,0,0,1,3.29-2.28,8.48,8.48,0,0,1,3.48-.82q4.45,0,6.5,2.6a10.59,10.59,0,0,1,2,6.76c0,.2-.09.29-.29.29l-13.87.63a10.9,10.9,0,0,0,.53,3.45,8.29,8.29,0,0,0,1.48,2.74,6.7,6.7,0,0,0,2.32,1.8,7.15,7.15,0,0,0,3.09.65,6.38,6.38,0,0,0,2.94-.72A7.75,7.75,0,0,0,536.06,224.52Zm-7.76-14.64a4.35,4.35,0,0,0-3.73,1.87,8.26,8.26,0,0,0-1.33,4.9l9-.43q.72,0,.72-.63a7.17,7.17,0,0,0-.29-1.92,6.33,6.33,0,0,0-.86-1.84,5,5,0,0,0-1.45-1.4A3.94,3.94,0,0,0,528.3,209.88Z" transform="translate(-38.54 -190.75)"/><path d="M562.07,226.25a1.16,1.16,0,0,0,.86,1.08,9.6,9.6,0,0,0,1.92.55.53.53,0,0,1,.43.58,4.43,4.43,0,0,1-.09.77c-.84-.07-1.65-.12-2.45-.17s-1.67-.07-2.59-.07-1.72,0-2.57.07-1.69.1-2.52.17a3.76,3.76,0,0,1-.1-.77.53.53,0,0,1,.44-.58,8.62,8.62,0,0,0,1.82-.55,1.17,1.17,0,0,0,.82-1.08v-9.41a15.16,15.16,0,0,0-.15-2.21,5.07,5.07,0,0,0-.55-1.75,2.9,2.9,0,0,0-1.1-1.15,3.51,3.51,0,0,0-1.79-.41,7,7,0,0,0-2.34.41,6,6,0,0,0-2,1.2,5.88,5.88,0,0,0-1.41,1.94,6.32,6.32,0,0,0-.52,2.64v8.74a1.16,1.16,0,0,0,.84,1.08,9.21,9.21,0,0,0,1.8.55.53.53,0,0,1,.43.58,3.76,3.76,0,0,1-.1.77c-.83-.07-1.65-.12-2.45-.17S547,229,546.11,229s-1.83,0-2.66.07-1.66.1-2.45.17a3.76,3.76,0,0,1-.1-.77.53.53,0,0,1,.43-.58,9.6,9.6,0,0,0,1.92-.55,1.19,1.19,0,0,0,.86-1.13v-13a3.31,3.31,0,0,0-.5-2.07,3.2,3.2,0,0,0-2.18-.77.63.63,0,0,1-.63-.67,2.38,2.38,0,0,1,.1-.62c.41,0,1,0,1.75-.07s1.37-.11,1.85-.17c.75-.13,1.41-.27,2-.41a6.52,6.52,0,0,1,1.27-.22c.45,0,.68.24.68.72a10.34,10.34,0,0,1-.15,1.61,16.53,16.53,0,0,0-.14,2.47,21,21,0,0,1,3.94-3.55,7.38,7.38,0,0,1,4.14-1.25,5.45,5.45,0,0,1,4.38,1.71,7,7,0,0,1,1.46,4.73Z" transform="translate(-38.54 -190.75)"/><path d="M568.16,218.86a10.55,10.55,0,0,1,.84-4.18,10.58,10.58,0,0,1,5.67-5.69,10.43,10.43,0,0,1,4.2-.84,11.49,11.49,0,0,1,4.32.8,10,10,0,0,1,3.38,2.18,9.87,9.87,0,0,1,2.21,3.38,11.64,11.64,0,0,1,.79,4.35,10.5,10.5,0,0,1-.84,4.2,10.69,10.69,0,0,1-5.66,5.66,10.5,10.5,0,0,1-4.2.84,11.41,11.41,0,0,1-4.32-.79,10.35,10.35,0,0,1-3.39-2.18,9.88,9.88,0,0,1-2.21-3.36A11.8,11.8,0,0,1,568.16,218.86Zm4.51-1.59a17.85,17.85,0,0,0,.39,3.65,12.91,12.91,0,0,0,1.17,3.39,7.69,7.69,0,0,0,2,2.49,4.74,4.74,0,0,0,3,1,5.11,5.11,0,0,0,4.25-1.92,7.81,7.81,0,0,0,1.51-5,20.51,20.51,0,0,0-.36-3.72,13.94,13.94,0,0,0-1.15-3.55,8,8,0,0,0-2.07-2.66,4.72,4.72,0,0,0-3.14-1.06,5.23,5.23,0,0,0-4.11,1.75Q572.67,213.44,572.67,217.27Z" transform="translate(-38.54 -190.75)"/><path d="M602.53,210a4.32,4.32,0,0,0-3.67,2,8.88,8.88,0,0,0-1.42,5.32c0,3.11.7,5.52,2.09,7.25a6.75,6.75,0,0,0,5.54,2.59,6.08,6.08,0,0,0,2.57-.48,16.34,16.34,0,0,0,1.8-1l.34-.21a.71.71,0,0,1,.38-.12.77.77,0,0,1,.53.33,2.9,2.9,0,0,1,.38.53,7.81,7.81,0,0,1-1.2,1.15,9.06,9.06,0,0,1-1.72,1.08,10.69,10.69,0,0,1-2.38.82,13.84,13.84,0,0,1-3.1.31,10.47,10.47,0,0,1-3.72-.65,8.66,8.66,0,0,1-3.07-1.94,9.25,9.25,0,0,1-2.09-3.24,12.38,12.38,0,0,1-.76-4.54,10.66,10.66,0,0,1,.93-4.48,11.84,11.84,0,0,1,2.4-3.48,11.28,11.28,0,0,1,3.27-2.26,8.55,8.55,0,0,1,3.52-.82,12.3,12.3,0,0,1,3.22.39,8.77,8.77,0,0,1,2.45,1,4.89,4.89,0,0,1,1.56,1.46,3.12,3.12,0,0,1,.55,1.75q0,.28-.48.48a6,6,0,0,1-1.08.31,10,10,0,0,1-1.15.17l-.65.05a1.09,1.09,0,0,1-1-.6l-.8-1.3a5.19,5.19,0,0,0-1.17-1.29A3.25,3.25,0,0,0,602.53,210Z" transform="translate(-38.54 -190.75)"/><path d="M619,229c-.55,0-1.11,0-1.67,0l-1.57.07-1.25.1-.67,0s0-.15,0-.34a3.32,3.32,0,0,1,0-.43.53.53,0,0,1,.44-.58,10,10,0,0,0,2-.57,1.16,1.16,0,0,0,.77-1.11v-13a3.38,3.38,0,0,0-.5-2.07,3.23,3.23,0,0,0-2.19-.77.63.63,0,0,1-.62-.67,2.79,2.79,0,0,1,.09-.62c.42,0,1,0,1.76-.07s1.37-.11,1.85-.17c.74-.13,1.41-.27,2-.41a6.34,6.34,0,0,1,1.26-.22c.45,0,.68.24.68.72a11.55,11.55,0,0,1-.14,1.61A16.33,16.33,0,0,0,621,213V226.2a1.15,1.15,0,0,0,.75,1.11,9.35,9.35,0,0,0,2.08.57.52.52,0,0,1,.39.58c0,.09,0,.24,0,.43a.74.74,0,0,1-.07.34l-.65,0-1.22-.1-1.57-.07C620.08,229,619.52,229,619,229Zm-2.81-28.85a2.83,2.83,0,0,1,.79-2,2.64,2.64,0,0,1,2-.84,2.52,2.52,0,0,1,1.92.84,2.85,2.85,0,0,1,.76,2,2.71,2.71,0,0,1-.76,2,2.6,2.6,0,0,1-1.92.77,2.74,2.74,0,0,1-2-.77A2.7,2.7,0,0,1,616.16,200.14Z" transform="translate(-38.54 -190.75)"/><path d="M647,224.71a4.64,4.64,0,0,0,.09,1,1.48,1.48,0,0,0,.39.69,1.84,1.84,0,0,0,.79.46,6.82,6.82,0,0,0,1.32.26c.42.07.62.28.62.63a3,3,0,0,1-.09.67c-.42,0-1,0-1.66.07s-1.27.11-1.75.17c-.71.13-1.34.26-1.87.41a5.28,5.28,0,0,1-1.19.21c-.46,0-.68-.24-.68-.72v-3.64c-.45.6-.9,1.19-1.35,1.75a8.49,8.49,0,0,1-1.56,1.49,7.51,7.51,0,0,1-2,1,9,9,0,0,1-2.78.38,7.45,7.45,0,0,1-3.12-.67,7.74,7.74,0,0,1-2.64-2,10,10,0,0,1-1.85-3.24,12.88,12.88,0,0,1-.7-4.37,10.77,10.77,0,0,1,1-4.73,11.9,11.9,0,0,1,2.5-3.5,10.56,10.56,0,0,1,3.24-2.16,8.31,8.31,0,0,1,3.24-.75,13.27,13.27,0,0,1,3.24.36,21.55,21.55,0,0,1,2.81.94v-9.07a3.17,3.17,0,0,0-.51-2,3.24,3.24,0,0,0-2.18-.75.63.63,0,0,1-.63-.67,3.11,3.11,0,0,1,.1-.67c.42,0,1,0,1.75-.07s1.37-.11,1.85-.17a15,15,0,0,0,2-.38,5.58,5.58,0,0,1,1.27-.24c.45,0,.68.24.68.72a13.58,13.58,0,0,1-.15,1.87,20.78,20.78,0,0,0-.14,2.59Zm-4-12.14a9.68,9.68,0,0,0-2.64-2,7.21,7.21,0,0,0-3.27-.72,4.63,4.63,0,0,0-4.2,2.31,11.13,11.13,0,0,0-1.41,5.9,14.55,14.55,0,0,0,.4,3.48,10.15,10.15,0,0,0,1.2,2.9,6.24,6.24,0,0,0,1.92,2,4.62,4.62,0,0,0,2.52.72,3.73,3.73,0,0,0,1.92-.57,7.87,7.87,0,0,0,1.76-1.47,7.76,7.76,0,0,0,1.29-2,5.43,5.43,0,0,0,.51-2.24Z" transform="translate(-38.54 -190.75)"/><path d="M670.5,224.52a1,1,0,0,1,.72-.33c.32,0,.62.27.91.81a14,14,0,0,1-1.44,1.68,9.24,9.24,0,0,1-1.94,1.47,11,11,0,0,1-2.57,1,13.21,13.21,0,0,1-3.31.38,10.8,10.8,0,0,1-3.65-.62,8.48,8.48,0,0,1-3.05-1.92,9.64,9.64,0,0,1-2.11-3.22,11.73,11.73,0,0,1-.79-4.51,10.83,10.83,0,0,1,.93-4.51,11.61,11.61,0,0,1,2.43-3.53,11.14,11.14,0,0,1,3.28-2.28,8.48,8.48,0,0,1,3.48-.82q4.47,0,6.51,2.6a10.59,10.59,0,0,1,2,6.76.25.25,0,0,1-.29.29l-13.87.63a10.9,10.9,0,0,0,.52,3.45,8.31,8.31,0,0,0,1.49,2.74,6.61,6.61,0,0,0,2.32,1.8,7.1,7.1,0,0,0,3.08.65,6.45,6.45,0,0,0,2.95-.72A7.59,7.59,0,0,0,670.5,224.52Zm-7.75-14.64a4.33,4.33,0,0,0-3.73,1.87,8.26,8.26,0,0,0-1.34,4.9l9-.43q.72,0,.72-.63a7.17,7.17,0,0,0-.29-1.92,6.33,6.33,0,0,0-.86-1.84,4.88,4.88,0,0,0-1.46-1.4A3.9,3.9,0,0,0,662.75,209.88Z" transform="translate(-38.54 -190.75)"/><path class="cls-1" d="M510,228.42c-2-.58-3.46.54-5.24.71s-3.88.26-6.27.26a22.53,22.53,0,0,1-8.52-1.48,16.82,16.82,0,0,1-6-4,16.41,16.41,0,0,1-3.56-6.07c-.78-2.34-1.66-4.92-1.17-7.61.76-4.18-.24-5.18,1.17-6.84.44-.52,2-4.33,3.54-6.16a18.27,18.27,0,0,1,5.95-4.47,19,19,0,0,1,8.38-1.74c1.14,0,2.23,0,3.28.09s2.08.16,3.1.31,2.07.33,3.11.54,2.18.47,3.39.77a8.31,8.31,0,0,0,.43,4.13c.45,1.37.48,2.82.83,4.19-.08.08-.19,0-.42,0s-.46.23-.61.23a1.05,1.05,0,0,1-1.14-.74,9.06,9.06,0,0,0-3.48-5.47,12.5,12.5,0,0,0-7-1.66,15.75,15.75,0,0,0-6.38,1.2c-1.83.8-3.49,1.65-4.38,3.44-1,2-2.25,2.88-2.86,4.8s-2,4-2.14,6.2c-.23,3,1.62,5.08,2.4,7.28a17.93,17.93,0,0,0,3.19,5.7,14.11,14.11,0,0,0,4.79,3.7,13.73,13.73,0,0,0,6,1.31,25.05,25.05,0,0,0,3.33-.22,19.76,19.76,0,0,0,2.83-.57v-8.72a2.36,2.36,0,0,0-.92-2.14,7.83,7.83,0,0,0-3.07-.89.73.73,0,0,1-.63-.39,1.47,1.47,0,0,1-.17-.69c0-.3.24-.37.11-.91,1.1.08,2.32.14,3.65.2s2.49.08,3.48.08,2.11,0,3.39-.08,2.38-.12,3.33-.2c.08.38.28.31.28.54a2.39,2.39,0,0,1-.36,1.14,1,1,0,0,1-.49.26,5.49,5.49,0,0,0-2.53.77,2,2,0,0,0-.72,1.68V227a1.29,1.29,0,0,1-.28.86C511.43,228.08,512,229,510,228.42Z" transform="translate(-38.54 -190.75)"/><g class="cls-2"><path class="cls-3" d="M510,224.1c-.35.06-.52.31-.79.52a5,5,0,0,0-.72.67c-.22.26-1,0-1.23.29a1.8,1.8,0,0,0-.34.78c0,.26.2.26.06.36s-.61.54-1,.58-.79-.94-1.15-.88-.4,1.5-.74,1.56-.79-.57-1.13-.5-.6.48-.94.53-.68.07-1,.12-.73-.33-1.06-.3-.67.24-1,.24-.7.17-1.07.17-.71-.56-1.08-.56-.71.42-1.07.41-.72-.05-1.07-.07-.69-.44-1-.48-.93,1-1.26.87-.33-1.43-.64-1.56-1,.31-1.22.09-.84-.42-1-.76.22-.88.08-1.19-.84-.41-1-.72-.29-.65-.44-1,.46-.33.56-.58-.21-.61-.29-.76-.12-.65-.36-.72-.86.36-.94.22c-.19-.33.66-1.25.48-1.54s-.89-.31-1.08-.58-.36-.66-.55-.92-.56-.5-.76-.76.11-1-.09-1.27-.82-.23-1-.52c-.28-.46-.68-.3-.94-.08a2.59,2.59,0,0,0-.67.74c-.15.3.16.84,0,1.14s-1.25.08-1.41.26-.67.89-.87.28c-.11-.32,1.26-.93,1.24-1.27,0-.17-.8-.06-1-.23a1.27,1.27,0,0,1-.34-.81c0-.33.18-.71.25-1s.65-.56.74-.89-.45-.82-.37-1.15.44-.57.51-.9.27-.62.32-1a8,8,0,0,0,0-1c0-.39.41-.75.52-1.11s-.18-.95,0-1.28c.09-.16.45-.14.71-.2s.19-.37.3-.52.68-.2.67-.44.07-.2.18-.36c.21-.31-.09-.93.1-1.26s.63-.49.76-.85.59-.72.54-1.06-1.11-.42-1.23-.76.25-.82.15-1.16a4,4,0,0,1-.15-1.05c0-.33.69-.47.82-.83a2.62,2.62,0,0,1,.29-.87.85.85,0,0,0,.07-.6c0-.25-.34-.75-.23-.88A10.49,10.49,0,0,1,486,196c.26-.25,1,.07,1.32-.15s.71-.15,1-.35.55-.38.89-.55.62-.3,1-.46.67-.35,1-.52.85,0,1.18-.16.19-1.23.52-1.4.93.27,1.28.12.52-.64.87-.76.79.17,1.15.08a8.64,8.64,0,0,1,1-.32c.36,0,.67-.73,1-.73s.73.6,1.09.61.73-.1,1.09-.09.71.36,1.07.38.72-.49,1.06-.47.7,0,1,0,.66.34,1,.39.53.42.93.66c.18.1.45-.2.7-.21s.5.23.67.34.27.32.42.5.45.1.64.13a1.65,1.65,0,0,0,1-.05,2.11,2.11,0,0,1,1.24-.28,8.32,8.32,0,0,0-.06,1.31c.08.33.35.61.46.94s-.44.84-.34,1.18.5.55.55.89.37.82.19.9-.37-.28-.18.16c.08.21-.14.71.08,1.18.13.28.79.36,1,.75s0,.69.21,1.06c-.07.07,0-.46-.27-.42s-.33.6-.48.6-.53-.36-.71-.9c-.11-.32-.49-.65-.58-1-.05-.18.24-.43.37-.65s.39-.51.35-.68-.46-.23-.61-.37a3.94,3.94,0,0,1-.54-.52c-.07-.26.14-.54.1-.71-.08-.34-.47-.13-.58-.2s-.61.06-.79-.09.24-.63.29-1.12a.72.72,0,0,0-.28-.79c-.23-.22-.66-.05-1-.23s-.39-.86-.76-1-.75,0-1.12-.13-.61-.68-1-.75-.79.1-1.16,0-.74-.28-1.1-.31-.74-.55-1.1-.57-.82,1.07-1.16,1.07a4.21,4.21,0,0,0-1,.09,9.81,9.81,0,0,0-1,.29c-.33.11-.66.21-1,.33s-.68.21-1,.31-.77,0-1.09,0-.76.42-1.08.38a1.91,1.91,0,0,1-1-.63c-.28-.32-.18,0-.49.17s-1.36-.52-1.61-.22.47,1.18.27,1.47-1.35-.11-1.54.17.26,1,.06,1.25a4.08,4.08,0,0,1-.69.69c-.31.24-.78,1.11-1.08,1s-.65-1.09-.94-1,.25,1.07.05,1.42-.92.21-1,.59-.39.64-.45,1,.4.78.36,1.14.16.74.13,1.09-1.43.59-1.47.92.4.79.31,1.07,0,.69-.3,1-.39.62-.69.83c-.14.1-.42.5-.68.43s-.16-.12-.31,0,0,.06-.05.3-.47.51-.61.6c-.31.2-.8.08-1.05.3s-1.25,0-1.42.28.49,1.06.49,1.42c0,.18.41.64.27.84s-.61.16-.54.31c.15.32.64.52.88.72s.27.72.53.66.5-.62.63-.54a2.05,2.05,0,0,1,.7,1c.06.24-.23.64-.53,1a2.73,2.73,0,0,1-.9.66,5.75,5.75,0,0,0-.91.61c-.29.24-.86.64-.67,1.1.1.24.62.45.94.81s.62.33.94.62.48.51.8.77.56.43.87.68.43.63.75.86a6.71,6.71,0,0,1,.95.56c.24.21.69.27,1,.54s.31.72.58,1,.48.55.75.81.78.24,1.05.49.56.47.82.73.68.36.94.6.2.89.46,1.12.29.82.55,1,1.1-.14,1.36.06a5.09,5.09,0,0,0,.85.55c.29.14.45.57.79.67a9.06,9.06,0,0,0,1,.41c.32.06.74-.38,1.08-.34s.59.82.93.85.68.22,1,.23.71-.24,1-.23l1,0c.29,0,.63-.05,1,0s.69-.77,1-.76.66.49,1,.49.7.05,1,0,.51-.64.89-.72.91.84,1.24.76.55-.73.86-.82.75.74,1,.64,0-.82.17-.86c.15-.53.79-.45.85-1,0-.28-.65-.42-.84-.58s.06-.34.08-.62c.06-.55-.15-.57-.09-1.13,0-.27.13-.16.33-.28s-.08-.53-.06-.81c.06-.55.13-.55.19-1.1s-.14-.57-.08-1.13-.24-.58-.18-1.14.73-.49.79-1.05-.89-.62-.85-1.18c0-.35.87-1,.57-1.34s-.49-.73-.76-1a2.27,2.27,0,0,0-.81-.39c-.35-.11-1,0-1-.17,0-.34.22-.89-.37-.81-.33.05-.65.63-1.08.73s-.64.65-1,.74-.9-.87-1.28-.81-.06.18-.17,0,.15.18.7,0a.82.82,0,0,0,.52-.81c0-.15-.08,0-.58.07-.23,0-.61.52-.83.37a.54.54,0,0,1-.27-.55c.31,0,.67.45,1,.55s.89-.56,1.23-.44.48.77.81.86.67.71,1,.73.72-.38,1-.25.48.64.78.79.86-.27,1.22-.27a2.07,2.07,0,0,0,1-.27c.3-.15.71-.11,1.05-.25s.59-.67,1-.69.14-.38-.43-.37c-.29,0-.62.23-.92.23-.58,0-1,.57-.64.54,0,.09.35-.51.91-.57.29,0,.76,1,1.12,1s.56-.65.9-.71.64-.25,1-.31.78.46,1.07.42a2.09,2.09,0,0,0,.91-.48c0,.19-.38.57-.83.67s-.91-.07-1,0a1.72,1.72,0,0,1-1,.37c-.3,0-.63-.89-1-.9s-.67,0-1,0l-1,0a4.55,4.55,0,0,1-1.1-.23c-.51.06,0,.75.49.89.14,0,.63-.08.73.18s-.2.88-.05.92c.5.14,1.12-.38.95-.24a3.45,3.45,0,0,0-.89.43c-.22.19-.25.67-.51.9s-.61.29-.85.51-.11.83-.31,1.15c-.1.16-.47.31-.65.44s-.9,0-.95.16c-.11.37.6,1,.6,1.34a4.12,4.12,0,0,0,.07,1.16c.14.49.95.25,1.09.74s-1.06.83-.92,1.32.44.4.58.89.5.39.64.88.07.5.19,1a1,1,0,0,0,.95.65c.55-.07,1.47-.35,1.37-.23s-.72-.43-.82-.8c-.06-.2-.22-.41-.27-.62s.46-.65.37-.85S510.24,224.06,510,224.1Z" transform="translate(-38.54 -190.75)"/></g><path class="cls-3" d="M510,224.1c-.35.06-.52.31-.79.52a5,5,0,0,0-.72.67c-.22.26-1,0-1.23.29a1.8,1.8,0,0,0-.34.78c0,.26.2.26.06.36s-.61.54-1,.58-.79-.94-1.15-.88-.4,1.5-.74,1.56-.79-.57-1.13-.5-.6.48-.94.53-.68.07-1,.12-.73-.33-1.06-.3-.67.24-1,.24-.7.17-1.07.17-.71-.56-1.08-.56-.71.42-1.07.41-.72-.05-1.07-.07-.69-.44-1-.48-.93,1-1.26.87-.33-1.43-.64-1.56-1,.31-1.22.09-.84-.42-1-.76.22-.88.08-1.19-.84-.41-1-.72-.29-.65-.44-1,.46-.33.56-.58-.21-.61-.29-.76-.12-.65-.36-.72-.86.36-.94.22c-.19-.33.66-1.25.48-1.54s-.89-.31-1.08-.58-.36-.66-.55-.92-.56-.5-.76-.76.11-1-.09-1.27-.82-.23-1-.52c-.28-.46-.68-.3-.94-.08a2.59,2.59,0,0,0-.67.74c-.15.3.16.84,0,1.14s-1.25.08-1.41.26-.67.89-.87.28c-.12-.36,1.28-.76,1.34-1.06s-.74-.32-.86-.55a1.24,1.24,0,0,1,0-.88,9.32,9.32,0,0,1,.77-.77c.22-.24.83-.12,1.06-.37s-.08-.87.11-1.14.54-.3.66-.62a2.15,2.15,0,0,0,.29-.84,4,4,0,0,0-.17-.95c-.07-.32.16-.73.05-1.08s-.71-.47-.83-.8c-.06-.16.19-.41.3-.64s-.16-.33-.22-.49c-.12-.33-.19-.68-.3-1s-.27-.65-.36-1-.44-.63-.5-1,.79-.77.79-1.09-.75-.76-.64-1.07-.16-1,0-1.31.74,0,1-.06,0-.56.14-.72,1-.23,1.21-.59.3-.68.55-1a1,1,0,0,0,.06-.65c0-.25-.34-.72-.23-.9s.5-.61.72-.87,1-.07,1.29-.32.68-.23,1-.45.51-.42.83-.62.59-.32.93-.49.6-.32.95-.49.86,0,1.2-.15.18-1.23.51-1.41.94.24,1.28.07.49-.66.83-.81.82.11,1.17,0,.62-.34,1-.43.59-.81,1-.86.76.53,1.14.53.73-.11,1.09-.11.72.35,1.08.37.75-.52,1.11-.5.69,0,1,0,.66.32,1,.36.65.33,1,.38.37-.34.6-.4.48.18.68.29.22.32.35.53.46.16.63.26.34.57.57.55.54-.83.72-.79c.57.12.59.64.83.58s.31.19.86.33a3.91,3.91,0,0,0,.27.84c.08.33-.18.78-.07,1.11s1.19.35,1.29.69-.52.84-.47,1.18c.14.94-.71.41-.36,1.22a1.79,1.79,0,0,0,.64.51c.19.09.35,0,.44.22s-.19.83,0,1.22.46.49.64.86c-.07.08,0,.22-.22.26a4.27,4.27,0,0,1-.59.1c-.19,0-.63-.49-.81-1-.06-.16.16-.32.29-.56s-.08-.48-.13-.67-.16-.23-.34-.38-.19-.47-.23-.65c-.11-.53-.55-.86-.59-1-.2-.75-.48-.48-.64-.6s-.16-.41-.24-.78a3.38,3.38,0,0,1,.08-.76c0-.36-.31-.23-.62-.53s-.13-.89-.5-1.07-.72-.12-1.1-.25-.56-.72-.93-.81-.79.06-1.16,0-.71-.31-1.08-.36-.72-.58-1.08-.62-.86,1-1.22,1-.75-.06-1.09-.06a4.37,4.37,0,0,0-1,.14,9.5,9.5,0,0,0-1,.26c-.33.11-.67.18-1,.3s-.76,0-1.08.11-.62.52-.94.59a3.51,3.51,0,0,1-1.13,0c-.36-.05-1,0-1.26-.32s-.63-1.33-.95-1.13.17,1.25-.07,1.56-1.35-.17-1.55.12.27,1,.08,1.28-.4.55-.6.8,0,1.18-.18,1.36-1-.49-1.27-.6-.69,1-1,1-.71-.62-1-.46-.71.15-1,.38-.13.81-.36,1.07-.21.64-.41.93-1.54-.15-1.71.15.09.88,0,1.18-.05.77-.17,1.06a5.66,5.66,0,0,0-.16,1c0,.14.09.62-.12.8s-.16,0-.15.24.07,0,.28.19.23.66.27.86c.06.35-.24.78-.16,1.16s-.67.93-.58,1.3c0,.18.58.38.79.52s.95,0,1,.19-.45.56-.59.8,0,.33,0,.51c.1.37-.53.92-.44,1.27.05.19.73.12,1,.26s.87.27.91.44c.09.4-.77,1-.71,1.31s.38.78.38,1.08c0,.88-.05.81-.19.45s-.14-.64-.29-1a2.5,2.5,0,0,0-.66-.88.81.81,0,0,0-1,.34c-.22.29-.15,1.05-.48,1.24s-1-.16-1.26.05a.59.59,0,0,0-.22.47,1,1,0,0,0,.11.55,3.24,3.24,0,0,0,.63.86c.21.23,0,1,.29,1.32s.77.21,1.09.46,1.07-.21,1.39,0,.13,1,.45,1.25.78.07,1.11.37.52.47.81.75.28.74.55,1,.8.22,1.07.48.39.64.66.89.7.33,1,.58.16.9.43,1.15.95.07,1.21.3.28.81.55,1,.35.81.61,1,.89.18,1.13.3a8,8,0,0,0,.93.45c.31.09.63.27,1,.34s.67.19,1,.23.65.5,1,.53.77-1.23,1.11-1.21.67-.33,1-.33.68,1.21,1,1.21.66-.77,1-.75.62,1.44,1,1.45.7-.8,1-.8.82.78,1.12.74.6-.63,1-.72c.16,0,.63,0,.75-.26s0-.39.15-.43c.35-.09.68-.22,1-.31s.47-.58.71-.5.32.41.44.37c.21-.47.06-.51.19-1s-.08-.55.05-1.05.35-.44.47-.94-.57-.68-.44-1.17.95-.29,1.08-.79l.24-1c.13-.5.46-.42.58-.92.07-.25-.44-.3-.62-.47s0-.49.06-.74.45-.77.19-1.22-1.25-.08-1.49-.42.21-1.12,0-1.44-.33-.77-.53-1.06a1.27,1.27,0,0,1-.3-.83c0-.19-.48-.35-.82-.4s-.59-.33-.83-.29-.06.76-.23.94-.61-.11-.81-.06c-.36.09-.79,0-1.18.11s-.76.89-1.14,1-.3-1.05-.41-1.27c0-.07.05.27.34.08s.2-.52.41-.6c.52-.2.91-.31.91-.42s-.36-.25-.86-.18-1,.49-.91.33c.3,0,.43.47.79.58s.85-.45,1.19-.33.57.52.9.61.74-.1,1.06-.09,1-.08,1.35.31c.11.13,0,.57,0,.82s-.45.63-.34.8.11.72.3,1.05,1.2.15,1.38.47c.09.17-.15.81.1.88s.35-.07.44.08.51.31.46.54-.49.54-.4.7.56-.11.8,0,.1.59.2.72a.88.88,0,0,1,.21.47c.06.33.4,1,.52,1s.46-.58.53-.89a3.73,3.73,0,0,0,.15-.68c0-.3-.91-.68-.91-1.07s.85-.7.84-1.06-.2-.7-.21-1.05.26-.72.27-1.05-.13-.74-.08-1c.09-.5.15-.56.42-.57l-.44,0c-.29,0-.64-.52-.94-.52-.58,0-1,.23-.59.2,0,.05.11,0,.32.26s.38,0,.62-.05-.08-.19.06-.42.69-.06.87-.09.63-.19,1-.25.68,0,1,0,.76.27,1,.23c.57-.08.92-.32.92-.26s-.4.4-.84.49a1.5,1.5,0,0,0-.77.36A7.89,7.89,0,0,0,513,214c-.3,0-.64.07-1,.07s-.67-.07-1-.07-.71,0-1,0a6.81,6.81,0,0,1-1-.13c-.51.06-.11.1.43.24.14,0,.12.12.22.38s.49,0,.64.06c.5.15,1,.48.86.62a1,1,0,0,0-.41.8c0,.3.54.66.53,1s-.12.66-.14,1-.19.67-.21,1,.14.71.12,1c0,.18-.22.27-.42.42s-.1.4-.12.56c-.05.37.78.91.71,1.2s-.72.93-.88,1.08a1.89,1.89,0,0,1-1.62.12c-.24-.18,0-1-.2-1.31s-1-.27-1.1-.52c-.31-.53,0-1.09.15-.51s0,.51.18,1l.28,1c.14.49.2.48.34,1s.6.36.74.85.22.52.35,1c0,.16,0-.41.48-.48s1.28.53,1.18.65.48-.82.33-1.42a2.13,2.13,0,0,0-.47-.89C510.72,223.59,510.22,224.06,510,224.1Z" transform="translate(-38.54 -190.75)"/></svg>